<mxfile host="app.diagrams.net" modified="2023-05-28T05:03:09.142Z" agent="Mozilla/5.0 (Windows NT 10.0; Win64; x64) AppleWebKit/537.36 (KHTML, like Gecko) Chrome/113.0.0.0 Safari/537.36 Edg/113.0.1774.50" etag="dYEIYQmUVCJLYNTeiCaE" version="21.3.4" type="device">
  <diagram name="Trang-1" id="EjUWg-JAnZk1NTx3OTeu">
    <mxGraphModel dx="832" dy="621" grid="1" gridSize="10" guides="1" tooltips="1" connect="0" arrows="1" fold="1" page="1" pageScale="1" pageWidth="827" pageHeight="1169" math="0" shadow="0">
      <root>
        <mxCell id="0" />
        <mxCell id="1" parent="0" />
        <mxCell id="YMXXyqDsm919RmDW1V8n-12" value="CUSTOMER TYPES" style="swimlane;horizontal=0;whiteSpace=wrap;html=1;" vertex="1" parent="1">
          <mxGeometry x="30" y="320" width="930" height="180" as="geometry" />
        </mxCell>
        <mxCell id="YMXXyqDsm919RmDW1V8n-5" value="&lt;b&gt;Known&lt;br&gt;&lt;/b&gt;Age - Gender" style="shape=umlActor;verticalLabelPosition=bottom;verticalAlign=top;html=1;outlineConnect=0;fillColor=#4D9900;" vertex="1" parent="YMXXyqDsm919RmDW1V8n-12">
          <mxGeometry x="116" y="40" width="30" height="60" as="geometry" />
        </mxCell>
        <mxCell id="YMXXyqDsm919RmDW1V8n-8" value="&lt;b&gt;Unknown&lt;/b&gt; &lt;br&gt;Age - Gender" style="shape=umlActor;verticalLabelPosition=bottom;verticalAlign=top;html=1;outlineConnect=0;fillColor=#990000;" vertex="1" parent="YMXXyqDsm919RmDW1V8n-12">
          <mxGeometry x="710" y="40" width="30" height="60" as="geometry" />
        </mxCell>
        <mxCell id="YMXXyqDsm919RmDW1V8n-13" value="ALREADY RATING MOVIE" style="swimlane;horizontal=0;whiteSpace=wrap;html=1;strokeColor=#CCCCCC;" vertex="1" parent="1">
          <mxGeometry x="30" y="500" width="1140" height="310" as="geometry" />
        </mxCell>
        <mxCell id="YMXXyqDsm919RmDW1V8n-27" style="edgeStyle=orthogonalEdgeStyle;rounded=0;orthogonalLoop=1;jettySize=auto;html=1;exitX=0;exitY=0;exitDx=120.00000000000001;exitDy=40;exitPerimeter=0;entryX=0;entryY=0.5;entryDx=0;entryDy=0;" edge="1" parent="YMXXyqDsm919RmDW1V8n-13" source="YMXXyqDsm919RmDW1V8n-17" target="YMXXyqDsm919RmDW1V8n-26">
          <mxGeometry relative="1" as="geometry" />
        </mxCell>
        <mxCell id="YMXXyqDsm919RmDW1V8n-34" value="" style="edgeStyle=orthogonalEdgeStyle;rounded=0;orthogonalLoop=1;jettySize=auto;html=1;" edge="1" parent="YMXXyqDsm919RmDW1V8n-13" source="YMXXyqDsm919RmDW1V8n-17">
          <mxGeometry relative="1" as="geometry">
            <mxPoint x="310" y="170" as="targetPoint" />
            <Array as="points">
              <mxPoint x="250" y="170" />
            </Array>
          </mxGeometry>
        </mxCell>
        <mxCell id="YMXXyqDsm919RmDW1V8n-42" value="" style="edgeStyle=orthogonalEdgeStyle;rounded=0;orthogonalLoop=1;jettySize=auto;html=1;" edge="1" parent="YMXXyqDsm919RmDW1V8n-13" source="YMXXyqDsm919RmDW1V8n-17">
          <mxGeometry relative="1" as="geometry">
            <mxPoint x="309" y="270" as="targetPoint" />
            <Array as="points">
              <mxPoint x="229" y="270" />
            </Array>
          </mxGeometry>
        </mxCell>
        <mxCell id="YMXXyqDsm919RmDW1V8n-17" value="ALS" style="shape=cube;whiteSpace=wrap;html=1;boundedLbl=1;backgroundOutline=1;darkOpacity=0.05;darkOpacity2=0.1;" vertex="1" parent="YMXXyqDsm919RmDW1V8n-13">
          <mxGeometry x="170" y="30" width="120" height="60" as="geometry" />
        </mxCell>
        <mxCell id="YMXXyqDsm919RmDW1V8n-26" value="rec_genres_for_age_gender" style="swimlane;whiteSpace=wrap;html=1;" vertex="1" parent="YMXXyqDsm919RmDW1V8n-13">
          <mxGeometry x="310" y="30" width="220" height="80" as="geometry" />
        </mxCell>
        <mxCell id="YMXXyqDsm919RmDW1V8n-28" value="Recommendation movie genres for &lt;br&gt;each age_gender" style="text;html=1;align=center;verticalAlign=middle;resizable=0;points=[];autosize=1;strokeColor=none;fillColor=none;" vertex="1" parent="YMXXyqDsm919RmDW1V8n-26">
          <mxGeometry x="5" y="30" width="210" height="40" as="geometry" />
        </mxCell>
        <mxCell id="YMXXyqDsm919RmDW1V8n-30" value="rec_genres_for_user" style="swimlane;whiteSpace=wrap;html=1;" vertex="1" parent="YMXXyqDsm919RmDW1V8n-13">
          <mxGeometry x="310" y="126" width="220" height="80" as="geometry" />
        </mxCell>
        <mxCell id="YMXXyqDsm919RmDW1V8n-31" value="Recommendation movie genres for &lt;br&gt;each user" style="text;html=1;align=center;verticalAlign=middle;resizable=0;points=[];autosize=1;strokeColor=none;fillColor=none;" vertex="1" parent="YMXXyqDsm919RmDW1V8n-30">
          <mxGeometry x="5" y="30" width="210" height="40" as="geometry" />
        </mxCell>
        <mxCell id="YMXXyqDsm919RmDW1V8n-39" value="rec_movie_for_user" style="swimlane;whiteSpace=wrap;html=1;" vertex="1" parent="YMXXyqDsm919RmDW1V8n-13">
          <mxGeometry x="310" y="220" width="220" height="80" as="geometry" />
        </mxCell>
        <mxCell id="YMXXyqDsm919RmDW1V8n-40" value="Recommendation movie for &lt;br&gt;each user" style="text;html=1;align=center;verticalAlign=middle;resizable=0;points=[];autosize=1;strokeColor=none;fillColor=none;" vertex="1" parent="YMXXyqDsm919RmDW1V8n-39">
          <mxGeometry x="25" y="30" width="170" height="40" as="geometry" />
        </mxCell>
        <mxCell id="YMXXyqDsm919RmDW1V8n-64" value="rec_movie_for_user" style="swimlane;whiteSpace=wrap;html=1;" vertex="1" parent="YMXXyqDsm919RmDW1V8n-13">
          <mxGeometry x="797" y="115" width="220" height="80" as="geometry" />
        </mxCell>
        <mxCell id="YMXXyqDsm919RmDW1V8n-65" value="Recommendation movie for &lt;br&gt;each user" style="text;html=1;align=center;verticalAlign=middle;resizable=0;points=[];autosize=1;strokeColor=none;fillColor=none;" vertex="1" parent="YMXXyqDsm919RmDW1V8n-64">
          <mxGeometry x="25" y="30" width="170" height="40" as="geometry" />
        </mxCell>
        <mxCell id="YMXXyqDsm919RmDW1V8n-69" value="" style="edgeStyle=orthogonalEdgeStyle;rounded=0;orthogonalLoop=1;jettySize=auto;html=1;" edge="1" parent="YMXXyqDsm919RmDW1V8n-13" source="YMXXyqDsm919RmDW1V8n-59">
          <mxGeometry relative="1" as="geometry">
            <mxPoint x="800" y="160" as="targetPoint" />
            <Array as="points">
              <mxPoint x="725" y="160" />
            </Array>
          </mxGeometry>
        </mxCell>
        <mxCell id="YMXXyqDsm919RmDW1V8n-59" value="ALS" style="shape=cube;whiteSpace=wrap;html=1;boundedLbl=1;backgroundOutline=1;darkOpacity=0.05;darkOpacity2=0.1;" vertex="1" parent="YMXXyqDsm919RmDW1V8n-13">
          <mxGeometry x="665" y="30" width="120" height="60" as="geometry" />
        </mxCell>
        <mxCell id="YMXXyqDsm919RmDW1V8n-14" value="NOT YET RATING MOVIE" style="swimlane;horizontal=0;whiteSpace=wrap;html=1;strokeColor=#B3B3B3;" vertex="1" parent="1">
          <mxGeometry x="30" y="810" width="930" height="180" as="geometry" />
        </mxCell>
        <mxCell id="YMXXyqDsm919RmDW1V8n-47" value="rec_movie_known_age_gender_new_cus" style="swimlane;whiteSpace=wrap;html=1;" vertex="1" parent="YMXXyqDsm919RmDW1V8n-14">
          <mxGeometry x="70" y="60" width="285" height="80" as="geometry" />
        </mxCell>
        <mxCell id="YMXXyqDsm919RmDW1V8n-48" value="Recommendation movie based on customer&#39;s&lt;br&gt;age and gender" style="text;html=1;align=center;verticalAlign=middle;resizable=0;points=[];autosize=1;strokeColor=none;fillColor=none;" vertex="1" parent="YMXXyqDsm919RmDW1V8n-14">
          <mxGeometry x="77.5" y="90" width="270" height="40" as="geometry" />
        </mxCell>
        <mxCell id="YMXXyqDsm919RmDW1V8n-37" value="" style="edgeStyle=orthogonalEdgeStyle;rounded=0;orthogonalLoop=1;jettySize=auto;html=1;entryX=0.494;entryY=-0.016;entryDx=0;entryDy=0;entryPerimeter=0;" edge="1" parent="1" source="YMXXyqDsm919RmDW1V8n-5" target="YMXXyqDsm919RmDW1V8n-17">
          <mxGeometry relative="1" as="geometry">
            <mxPoint x="250" y="520" as="targetPoint" />
          </mxGeometry>
        </mxCell>
        <mxCell id="YMXXyqDsm919RmDW1V8n-38" value="RECOMMENDATION FOR FILM WEBSITE - NETFLIX" style="text;html=1;strokeColor=none;fillColor=none;align=center;verticalAlign=middle;whiteSpace=wrap;rounded=0;fontStyle=1" vertex="1" parent="1">
          <mxGeometry x="130" y="280" width="300" height="30" as="geometry" />
        </mxCell>
        <mxCell id="YMXXyqDsm919RmDW1V8n-51" value="" style="edgeStyle=orthogonalEdgeStyle;rounded=0;orthogonalLoop=1;jettySize=auto;html=1;" edge="1" parent="1" source="YMXXyqDsm919RmDW1V8n-5">
          <mxGeometry relative="1" as="geometry">
            <mxPoint x="212" y="872" as="targetPoint" />
            <Array as="points">
              <mxPoint x="161" y="830" />
              <mxPoint x="212" y="830" />
            </Array>
          </mxGeometry>
        </mxCell>
        <mxCell id="YMXXyqDsm919RmDW1V8n-53" value="" style="edgeStyle=orthogonalEdgeStyle;rounded=0;orthogonalLoop=1;jettySize=auto;html=1;" edge="1" parent="1" source="YMXXyqDsm919RmDW1V8n-28" target="YMXXyqDsm919RmDW1V8n-47">
          <mxGeometry relative="1" as="geometry">
            <mxPoint x="680" y="580" as="targetPoint" />
            <Array as="points">
              <mxPoint x="590" y="580" />
              <mxPoint x="590" y="830" />
              <mxPoint x="230" y="830" />
            </Array>
          </mxGeometry>
        </mxCell>
        <mxCell id="YMXXyqDsm919RmDW1V8n-66" value="" style="edgeStyle=orthogonalEdgeStyle;rounded=0;orthogonalLoop=1;jettySize=auto;html=1;" edge="1" parent="1" source="YMXXyqDsm919RmDW1V8n-8" target="YMXXyqDsm919RmDW1V8n-59">
          <mxGeometry relative="1" as="geometry" />
        </mxCell>
      </root>
    </mxGraphModel>
  </diagram>
</mxfile>
